<?xml version="1.0" standalone="no"?>
<!DOCTYPE svg PUBLIC "-//W3C//DTD SVG 20010904//EN"
 "http://www.w3.org/TR/2001/REC-SVG-20010904/DTD/svg10.dtd">
<svg version="1.0" xmlns="http://www.w3.org/2000/svg"
 width="1106.000000pt" height="1106.000000pt" viewBox="0 0 1106.000000 1106.000000"
 preserveAspectRatio="xMidYMid meet">
<metadata>
Created by potrace 1.11, written by Peter Selinger 2001-2013
</metadata>
<g transform="translate(0.000000,1106.000000) scale(0.100000,-0.100000)"
fill="#000000" stroke="none">
<path d="M10733 10844 c-40 -7 -63 -8 -63 -1 0 6 -4 6 -12 0 -19 -15 -88 -24
-88 -12 0 6 -7 3 -16 -5 -19 -19 -28 -21 -18 -3 5 8 2 8 -9 -2 -16 -12 -22 -8
-18 12 1 5 -3 6 -9 2 -6 -3 -7 -11 -4 -17 5 -7 -4 -9 -24 -6 -18 3 -29 0 -25
-5 4 -6 -5 -8 -21 -5 -14 3 -26 2 -26 -2 0 -3 -18 -6 -40 -6 -22 1 -40 -3 -40
-7 0 -5 -4 -6 -9 -3 -4 3 -22 1 -40 -4 -19 -5 -29 -5 -26 1 4 5 2 9 -4 9 -5 0
-11 -4 -13 -9 -1 -5 -41 -15 -88 -21 -47 -6 -93 -13 -104 -17 -14 -4 -16 -2
-11 8 5 8 -1 5 -13 -5 -12 -11 -22 -15 -22 -9 0 5 -7 10 -15 10 -8 0 -15 -4
-15 -9 0 -5 -6 -8 -12 -7 -7 2 -26 0 -43 -4 -16 -4 -52 -9 -80 -12 -27 -3 -60
-7 -72 -9 -13 -3 -23 -1 -23 5 0 5 -5 9 -11 9 -5 0 -7 -5 -3 -12 5 -8 0 -9
-14 -6 -12 4 -20 2 -16 -3 3 -5 0 -9 -5 -9 -6 0 -11 5 -11 10 0 6 -4 10 -10
10 -5 0 -9 -3 -9 -7 4 -22 -3 -24 -21 -8 -20 18 -21 18 -14 -1 7 -17 6 -18
-11 -4 -14 11 -17 12 -11 1 7 -11 1 -13 -27 -9 -20 2 -33 0 -31 -4 3 -4 -10
-9 -28 -10 -57 -3 -63 -4 -77 -13 -11 -6 -13 -4 -8 8 3 9 1 19 -5 23 -6 4 -8
3 -5 -3 4 -6 0 -17 -9 -24 -13 -10 -17 -10 -24 0 -5 9 -9 10 -11 2 -4 -12 -99
-33 -99 -21 0 3 -7 7 -15 7 -8 0 -11 -5 -8 -10 4 -6 -5 -8 -21 -5 -14 3 -26 1
-26 -4 0 -5 -4 -7 -9 -4 -4 3 -22 1 -40 -4 -19 -5 -29 -5 -26 1 4 5 2 9 -4 9
-5 0 -11 -4 -13 -10 -3 -9 -89 -23 -155 -24 -18 -1 -33 -5 -33 -9 0 -5 -5 -5
-10 -2 -6 4 -7 11 -4 17 4 7 2 8 -5 4 -6 -4 -9 -12 -6 -17 4 -5 -3 -10 -14
-10 -12 -1 -27 -2 -33 -3 -7 -1 -16 3 -20 9 -5 6 -8 6 -8 -2 0 -7 -5 -13 -11
-13 -5 0 -7 6 -4 13 4 6 0 3 -9 -7 -13 -17 -18 -17 -33 -5 -9 8 -14 9 -10 3 4
-7 -3 -14 -18 -16 -14 -3 -25 -1 -25 4 0 5 -6 6 -12 1 -7 -4 -19 -8 -27 -10
-8 -1 -25 -4 -38 -8 -13 -3 -23 -1 -23 5 0 5 -5 10 -11 10 -5 0 -7 -5 -3 -12
5 -8 0 -9 -14 -6 -12 4 -20 2 -16 -3 3 -5 0 -9 -5 -9 -6 0 -11 5 -11 10 0 6
-5 10 -10 10 -6 0 -9 -3 -9 -7 4 -22 -3 -24 -21 -8 -20 18 -21 18 -14 -1 7
-17 6 -18 -11 -4 -11 9 -16 10 -11 3 7 -13 2 -14 -86 -17 -16 0 -28 -5 -28
-10 0 -5 -3 -6 -6 -3 -4 3 -15 2 -25 -4 -11 -5 -19 -6 -19 -1 0 5 -7 9 -15 9
-8 0 -15 -4 -15 -8 0 -4 -8 -8 -17 -7 -10 0 -38 -4 -63 -9 -36 -7 -48 -6 -60
7 -8 8 -12 11 -7 6 13 -18 7 -24 -18 -21 -14 1 -25 -1 -25 -5 0 -4 -14 -6 -30
-5 -17 1 -33 -2 -36 -7 -3 -5 -13 -3 -22 4 -12 10 -14 10 -8 1 5 -9 0 -13 -16
-13 -13 0 -30 6 -37 13 -10 10 -11 9 -6 -4 4 -11 -1 -16 -22 -16 -15 -1 -39
-4 -52 -7 -14 -3 -31 0 -40 7 -12 9 -13 9 -7 0 6 -11 -6 -18 -16 -11 -2 1 -12
-4 -24 -10 -16 -8 -24 -8 -32 0 -7 7 -12 8 -12 2 0 -5 -9 -10 -21 -11 -18 -2
-19 0 -7 14 9 11 3 10 -17 -4 -34 -24 -120 -39 -108 -20 5 9 3 9 -8 0 -18 -14
-79 -24 -79 -12 0 5 -5 9 -11 9 -5 0 -7 -5 -3 -12 5 -8 0 -9 -14 -6 -12 4 -20
2 -16 -3 3 -5 0 -9 -5 -9 -6 0 -11 6 -11 13 0 8 -3 7 -10 -3 -5 -8 -24 -15
-42 -16 -18 0 -51 -4 -74 -8 -22 -4 -61 -8 -86 -10 -25 -2 -50 -6 -57 -10 -11
-7 -15 0 -12 17 1 5 -3 6 -9 2 -6 -3 -7 -11 -4 -17 5 -7 -4 -9 -24 -6 -18 3
-29 0 -25 -5 4 -6 -5 -8 -21 -5 -14 3 -29 1 -32 -4 -3 -5 -13 -3 -22 4 -13 11
-14 11 -8 0 6 -10 2 -13 -15 -12 -13 1 -28 1 -34 0 -5 -2 -14 -4 -20 -5 -5 -2
-12 -4 -15 -5 -3 -1 -15 -3 -28 -6 -17 -3 -21 -1 -16 8 6 10 4 10 -8 0 -8 -7
-35 -15 -59 -17 -24 -3 -69 -9 -99 -13 -30 -4 -62 -7 -70 -7 -8 0 -18 -4 -22
-10 -5 -6 -8 -4 -8 5 0 10 -3 11 -8 4 -4 -6 -24 -14 -45 -17 -35 -5 -37 -5
-25 11 10 14 8 13 -9 -1 -12 -11 -27 -16 -32 -12 -6 3 -11 0 -11 -7 0 -9 -3
-9 -10 2 -5 8 -10 10 -10 4 0 -7 -16 -11 -39 -10 -22 0 -37 -2 -34 -6 2 -5 -6
-8 -19 -9 -13 0 -36 -2 -53 -4 -16 -2 -35 1 -42 7 -11 9 -12 7 -6 -8 6 -17 5
-18 -12 -4 -13 10 -16 11 -11 2 5 -9 3 -12 -5 -11 -8 2 -32 0 -54 -4 -22 -4
-60 -9 -85 -13 -24 -3 -49 -8 -54 -11 -5 -4 -7 2 -3 13 7 19 7 19 -7 0 -10
-12 -23 -17 -40 -14 -15 3 -23 1 -19 -5 3 -5 0 -7 -8 -5 -8 3 -26 1 -42 -3
-20 -6 -25 -5 -20 4 4 7 0 7 -10 -1 -9 -8 -20 -11 -25 -9 -4 3 -14 2 -22 -3
-9 -5 -20 -4 -29 3 -12 9 -13 9 -7 0 4 -8 1 -13 -8 -13 -9 0 -16 6 -16 13 0 9
-2 9 -8 -1 -5 -7 -21 -15 -37 -18 -22 -4 -26 -2 -21 11 3 9 2 13 -4 10 -6 -3
-10 -12 -10 -19 0 -9 -11 -13 -35 -11 -20 1 -35 -3 -35 -9 0 -6 -5 -4 -10 4
-6 10 -10 11 -10 3 0 -7 -10 -12 -22 -12 -13 0 -36 -2 -51 -5 -22 -5 -27 -4
-21 6 4 7 -3 4 -16 -7 -14 -12 -20 -14 -15 -5 8 13 7 13 -8 1 -16 -12 -22 -8
-18 12 1 5 -3 6 -9 2 -6 -3 -7 -11 -4 -17 5 -7 1 -9 -9 -5 -9 3 -18 1 -20 -6
-3 -9 -9 -8 -22 3 -11 9 -16 10 -11 3 5 -9 0 -13 -16 -14 -13 0 -32 -2 -43 -5
-11 -2 -44 -5 -72 -7 -29 -1 -53 -5 -53 -9 0 -4 -8 -7 -17 -6 -10 0 -54 -5
-98 -12 -44 -6 -92 -13 -107 -14 -15 -1 -30 -5 -34 -9 -4 -3 -16 -2 -27 4 -14
8 -18 8 -13 0 4 -6 2 -11 -3 -11 -6 0 -11 6 -11 13 0 8 -3 8 -9 -2 -5 -8 -27
-15 -50 -16 -22 -1 -44 -4 -47 -8 -4 -4 -14 -1 -22 6 -13 9 -14 9 -8 0 7 -13
1 -15 -71 -17 -21 0 -41 -5 -45 -11 -5 -6 -8 -4 -8 5 0 11 -2 12 -8 3 -4 -7
-28 -14 -52 -17 -60 -6 -175 -23 -175 -26 0 -1 -19 -3 -43 -5 -25 -3 -40 0
-37 5 4 6 1 10 -4 10 -6 0 -11 -7 -11 -17 0 -14 -3 -14 -22 3 -17 14 -19 15
-10 2 12 -14 11 -17 -5 -16 -10 1 -29 -2 -43 -6 -19 -6 -21 -5 -10 3 8 6 10
11 4 11 -5 0 -15 -5 -21 -11 -6 -6 -34 -12 -62 -12 -28 -1 -51 -5 -51 -8 0 -6
-43 -11 -102 -12 -21 0 -36 -3 -33 -6 2 -4 -11 -8 -29 -9 -17 -1 -43 -5 -56
-8 -65 -13 -111 -14 -105 -2 4 7 1 6 -7 -2 -7 -8 -18 -16 -23 -16 -6 -1 -37
-5 -70 -9 -32 -3 -63 -9 -67 -11 -4 -3 -8 -1 -8 5 0 5 8 12 18 14 11 3 9 5 -8
6 -19 1 -22 3 -11 10 8 5 16 17 17 25 1 9 -1 14 -6 11 -4 -3 -10 2 -13 9 -4 9
1 17 11 19 14 4 13 5 -3 6 -17 1 -18 3 -5 11 10 6 11 10 3 10 -7 0 -13 5 -13
11 0 6 8 8 18 5 16 -6 16 -5 0 7 -10 8 -14 17 -10 21 4 4 -1 12 -11 17 -9 6
-15 14 -12 19 3 5 0 12 -6 16 -8 4 -9 3 -5 -4 4 -7 4 -12 0 -12 -14 0 -203
146 -204 157 0 6 -5 15 -12 19 -7 4 -8 3 -4 -4 5 -8 2 -10 -8 -6 -19 7 -20 16
-4 34 11 12 10 12 -5 0 -16 -12 -20 -12 -28 1 -5 8 -9 10 -9 6 0 -11 -65 43
-65 54 0 4 -4 11 -9 16 -5 5 -6 3 -2 -4 9 -16 0 -17 -17 -3 -7 6 -43 34 -82
62 -38 28 -77 60 -86 70 -9 10 -20 14 -24 10 -5 -4 -5 1 -2 10 4 12 2 15 -9
11 -7 -3 -14 0 -14 7 0 6 -4 8 -10 5 -5 -3 -15 3 -22 15 -7 11 -18 20 -24 20
-6 0 -19 10 -28 23 -9 12 -14 15 -10 7 5 -10 0 -9 -14 4 -18 16 -20 22 -9 35
11 14 10 14 -6 2 -14 -11 -20 -11 -34 0 -10 8 -24 19 -31 24 -8 6 -25 20 -38
33 -14 12 -29 22 -33 22 -5 0 -16 10 -25 23 -9 12 -14 16 -10 8 5 -10 3 -12
-5 -7 -7 5 -10 14 -7 22 3 7 0 16 -6 20 -7 4 -8 3 -4 -4 4 -7 1 -12 -8 -12 -9
0 -16 3 -16 8 0 4 -16 18 -35 31 -19 13 -32 27 -30 31 3 5 0 12 -6 16 -8 4 -9
3 -5 -4 10 -16 0 -15 -29 4 -14 9 -22 20 -19 25 3 5 -1 10 -8 10 -7 1 -23 3
-35 4 -13 1 -23 -1 -23 -5 0 -4 -19 -20 -42 -36 -24 -16 -52 -37 -62 -46 -11
-10 -26 -18 -35 -18 -8 0 -11 -3 -8 -7 4 -3 -17 -22 -46 -42 -28 -19 -58 -41
-65 -48 -8 -7 -17 -11 -22 -8 -5 3 -12 0 -16 -6 -5 -8 -2 -10 7 -5 8 4 5 0 -6
-8 -11 -9 -28 -23 -38 -31 -21 -18 -31 -19 -21 -3 4 7 3 8 -4 4 -7 -4 -12 -13
-12 -19 -1 -18 -80 -71 -104 -70 -12 1 -15 -1 -8 -4 16 -6 -3 -33 -23 -33 -7
0 -16 -7 -19 -16 -4 -9 -13 -14 -22 -10 -8 3 -13 2 -10 -3 8 -13 -102 -93
-116 -85 -7 4 -8 3 -4 -4 7 -11 -26 -35 -38 -27 -3 3 -4 2 -1 -1 4 -7 -54 -64
-66 -64 -3 0 -16 -9 -29 -20 -12 -11 -27 -17 -33 -13 -5 3 -7 2 -4 -4 9 -15
-49 -54 -70 -47 -14 5 -15 4 -4 -4 11 -8 9 -12 -10 -22 -12 -7 -34 -23 -48
-36 -14 -13 -29 -24 -34 -24 -4 0 -19 -11 -33 -25 -14 -14 -30 -22 -36 -19 -6
4 -8 3 -5 -3 4 -6 -1 -14 -10 -17 -15 -6 -15 -8 -3 -16 8 -6 11 -10 5 -10 -10
0 -12 -246 -2 -256 3 -3 52 -6 109 -6 61 0 109 -5 117 -12 11 -8 13 -8 7 2 -4
6 -3 12 1 12 5 0 9 -18 10 -40 0 -22 -3 -38 -7 -35 -5 3 -12 1 -15 -5 -4 -6
-1 -9 6 -8 8 2 13 -20 15 -75 1 -42 -1 -75 -6 -72 -5 3 -12 1 -15 -5 -4 -6 -1
-9 7 -8 16 4 20 -90 4 -111 -8 -11 -8 -13 0 -8 15 9 16 -93 0 -112 -8 -11 -8
-13 1 -8 14 8 13 -90 -1 -112 -6 -9 -5 -12 1 -8 14 9 13 -106 -1 -115 -7 -5
-6 -8 3 -8 11 0 11 -3 0 -17 -8 -9 -9 -14 -4 -11 7 4 11 -8 11 -33 0 -22 -2
-36 -5 -31 -3 4 -19 6 -36 5 -16 -1 -43 -2 -60 -2 -83 1 -100 4 -97 17 1 8 -2
11 -8 7 -6 -3 -7 -11 -4 -17 5 -7 0 -9 -14 -6 -13 4 -22 1 -22 -5 0 -7 -5 -5
-10 3 -8 12 -11 13 -19 1 -6 -9 -11 -10 -15 -2 -6 9 -34 2 -52 -13 0 -1 -8 5
-17 13 -10 7 -17 10 -17 5 0 -11 -131 -11 -148 0 -7 4 -12 4 -12 -1 0 -15
-131 -8 -141 8 -7 11 -9 10 -9 -5 0 -15 -3 -16 -14 -7 -11 9 -15 9 -19 -1 -4
-10 -6 -10 -6 1 -1 11 -4 11 -16 1 -12 -10 -15 -10 -15 1 0 11 -2 11 -10 -1
-7 -11 -10 -11 -10 -2 0 8 -5 10 -12 5 -7 -4 -20 -6 -29 -5 -13 2 -15 -23 -15
-213 1 -134 -3 -217 -9 -219 -5 -3 -4 -5 4 -5 11 -1 10 -5 -5 -16 -10 -8 -14
-15 -9 -14 22 3 25 -2 15 -20 -7 -14 -7 -22 1 -26 6 -5 4 -12 -8 -22 -14 -11
-14 -14 -2 -10 13 4 15 -6 13 -71 -1 -43 -3 -81 -4 -87 -1 -5 -1 -12 0 -15 6
-15 4 -189 -2 -208 -5 -13 -4 -21 1 -18 12 8 8 -67 -4 -76 -7 -5 -7 -8 0 -8 6
0 10 -22 9 -51 0 -44 2 -50 17 -46 10 3 27 -2 38 -10 16 -10 20 -11 16 -1 -4
10 15 13 84 12 49 -1 94 -5 100 -8 6 -4 11 -3 11 2 0 6 9 8 20 5 11 -3 17 -10
14 -17 -3 -6 0 -4 8 4 8 9 31 15 61 15 43 0 61 -8 38 -17 -5 -1 -3 -12 6 -23
l15 -20 -6 20 c-3 11 -1 27 4 35 7 11 10 6 10 -20 0 -20 -5 -41 -11 -47 -7 -7
-7 -13 -1 -17 15 -9 3 -44 -17 -49 -14 -4 -14 -5 2 -6 20 -1 22 -12 5 -29 -9
-9 -9 -12 0 -12 9 0 10 -6 5 -17 -5 -10 -8 -27 -8 -38 1 -11 -3 -26 -8 -32 -5
-7 -6 -13 -2 -13 4 0 1 -8 -6 -17 -10 -12 -11 -15 -1 -9 9 6 11 2 7 -16 -3
-12 -6 -32 -8 -43 -1 -11 -7 -26 -11 -34 -6 -9 -5 -12 1 -8 7 5 8 -4 3 -28 -4
-19 -5 -35 -2 -35 3 0 -3 -10 -14 -22 -10 -12 -13 -18 -6 -14 8 5 12 0 12 -14
0 -12 -4 -18 -10 -15 -13 8 -8 -18 5 -27 6 -5 6 -8 -2 -8 -7 0 -10 -10 -7 -26
3 -19 1 -24 -8 -18 -10 5 -10 4 -2 -5 12 -13 6 -73 -7 -65 -5 3 -9 0 -9 -5 0
-6 5 -11 10 -11 6 0 10 -5 10 -11 0 -5 -4 -8 -9 -5 -5 4 -7 -3 -4 -14 4 -16 2
-19 -13 -14 -16 5 -16 4 -4 -5 19 -13 14 -69 -8 -96 -14 -16 -14 -18 -1 -7 13
9 16 9 16 -3 0 -8 -3 -15 -6 -15 -4 0 -7 -12 -7 -27 -3 -97 -5 -104 -15 -97
-8 5 -8 1 0 -13 6 -11 7 -23 4 -27 -4 -3 -8 -32 -10 -63 -3 -38 -9 -61 -21
-70 -13 -10 -14 -13 -2 -11 9 2 14 -3 12 -12 -2 -8 -6 -35 -9 -60 -3 -25 -11
-48 -17 -52 -8 -6 -8 -8 1 -8 6 0 10 -8 8 -17 -1 -10 -8 -17 -16 -15 -10 2
-10 0 0 -12 10 -12 9 -17 -6 -26 -16 -10 -16 -11 0 -6 22 7 22 -10 0 -23 -17
-10 -17 -10 -1 -11 11 0 15 -5 12 -15 -4 -8 -10 -12 -15 -9 -5 3 -9 1 -9 -5 0
-5 4 -11 9 -13 6 -2 6 -21 1 -48 -4 -25 -11 -67 -14 -95 -7 -65 -10 -77 -20
-94 -7 -10 -6 -12 4 -6 8 5 11 3 8 -6 -3 -8 -12 -13 -19 -11 -11 3 -12 1 -1
-9 6 -7 12 -22 12 -34 0 -16 -2 -17 -10 -5 -5 8 -10 11 -10 5 0 -5 4 -16 9
-24 12 -18 2 -43 -13 -34 -6 4 -6 0 2 -9 7 -9 10 -27 7 -40 -5 -22 -13 -80
-14 -106 -1 -7 -6 -10 -13 -6 -7 5 -8 3 -3 -7 12 -19 6 -82 -8 -91 -9 -6 -9
-8 0 -8 7 0 10 -9 7 -22 -3 -13 -7 -37 -9 -55 -2 -17 -7 -51 -11 -75 -4 -24
-8 -60 -8 -80 -1 -22 -6 -38 -13 -38 -6 0 -15 -4 -18 -10 -3 -6 1 -7 9 -4 19
7 21 -7 4 -25 -11 -11 -10 -12 2 -6 9 5 7 -1 -5 -15 -11 -13 -14 -20 -6 -15
12 7 13 1 7 -31 -4 -21 -9 -59 -10 -84 -2 -25 -5 -46 -6 -47 -1 -2 -3 -11 -4
-20 -1 -10 -5 -24 -9 -30 -5 -8 -4 -13 3 -13 6 0 8 -5 4 -12 -4 -6 -8 -23 -10
-37 -1 -14 -3 -26 -4 -26 -1 0 -4 -29 -6 -65 -3 -35 -11 -71 -17 -79 -8 -10
-8 -13 -1 -8 9 5 10 -3 4 -28 -4 -19 -5 -35 -2 -35 3 0 -3 -10 -14 -22 -10
-12 -13 -18 -6 -14 8 5 12 0 12 -14 0 -13 -4 -19 -11 -14 -8 4 -8 0 0 -15 8
-15 9 -21 1 -21 -6 0 -9 -4 -6 -9 4 -5 0 -12 -6 -14 -8 -3 -9 -6 -2 -6 15 -1
6 -83 -10 -93 -8 -6 -8 -8 1 -8 15 0 5 -39 -16 -64 -9 -11 -11 -16 -4 -13 6 4
14 3 18 -3 3 -5 3 -10 -2 -10 -4 0 -8 -20 -7 -45 0 -25 -2 -45 -5 -45 -4 0 -7
-20 -8 -44 -1 -24 -5 -57 -8 -73 -7 -32 -17 -119 -16 -146 0 -9 -5 -15 -11
-11 -7 4 -7 0 1 -13 6 -11 7 -24 3 -28 -4 -3 -8 -20 -8 -36 -4 -83 -3 -81 -21
-75 -17 6 -17 5 -1 -7 10 -8 16 -16 14 -18 -5 -5 -18 -89 -18 -112 1 -11 -4
-15 -11 -10 -9 5 -9 3 -1 -8 6 -8 9 -27 6 -44 -2 -16 -5 -40 -6 -52 0 -13 -7
-23 -13 -23 -7 0 -13 -5 -13 -11 0 -5 4 -7 10 -4 5 3 10 2 10 -4 0 -5 -4 -13
-10 -16 -5 -3 -10 -12 -10 -18 0 -7 4 -6 11 3 8 12 9 10 4 -9 -4 -13 -8 -29
-9 -36 -1 -7 -8 -21 -16 -31 -14 -17 -14 -18 3 -5 10 8 17 9 17 3 0 -6 -4 -13
-9 -16 -5 -3 -7 -15 -4 -26 4 -13 -1 -26 -13 -36 -11 -8 -14 -13 -9 -12 9 3
17 -7 14 -14 -1 -2 -2 -14 -4 -28 -7 -68 -11 -86 -20 -92 -6 -5 -5 -8 3 -8 8
0 10 -5 6 -12 -4 -7 -8 -24 -8 -39 -1 -14 -8 -34 -16 -44 -9 -12 -10 -16 -2
-11 9 5 12 -1 10 -23 -1 -17 -5 -31 -9 -31 -3 0 -5 -17 -4 -37 0 -21 -3 -60
-7 -88 -5 -27 -11 -74 -14 -103 -8 -75 -9 -81 -16 -88 -4 -3 -4 -17 -2 -31 3
-18 1 -23 -8 -17 -10 6 -10 5 -1 -7 7 -8 8 -20 4 -27 -4 -8 -6 -25 -3 -39 4
-20 2 -24 -9 -18 -12 7 -12 6 -1 -7 11 -14 10 -18 -5 -27 -11 -6 -13 -11 -5
-11 11 0 12 -10 6 -43 -4 -23 -7 -50 -6 -60 0 -9 -2 -16 -6 -13 -4 2 -7 -17
-7 -42 1 -50 -10 -76 -28 -65 -6 3 -7 1 -3 -6 4 -6 12 -9 17 -6 13 9 11 -9 -3
-24 -11 -11 -10 -12 2 -6 12 7 13 6 3 -7 -7 -8 -10 -17 -7 -21 11 -11 -8 -117
-20 -110 -8 4 -8 3 0 -6 14 -16 6 -63 -10 -54 -8 5 -8 3 1 -8 7 -8 9 -33 6
-62 -5 -42 -8 -46 -22 -35 -15 12 -15 11 0 -7 16 -21 15 -60 -3 -49 -6 4 -6
-1 1 -13 6 -11 7 -23 4 -27 -4 -3 -7 -23 -8 -44 -1 -20 -3 -37 -5 -37 -1 0 -3
-24 -5 -54 -1 -32 -8 -57 -16 -62 -12 -7 -12 -9 0 -9 11 0 11 -3 1 -15 -9 -11
-9 -15 -1 -15 7 0 9 -5 4 -12 -4 -7 -6 -21 -4 -32 1 -10 -1 -16 -6 -13 -4 3
-8 -21 -7 -54 0 -32 -2 -59 -5 -59 -3 0 -7 -23 -9 -52 -1 -29 -8 -56 -15 -60
-8 -5 -9 -8 0 -8 6 0 10 -8 8 -17 -2 -10 -4 -24 -4 -31 -1 -7 -5 -11 -10 -7
-5 3 -13 1 -16 -5 -4 -6 -1 -9 7 -8 12 3 14 -44 4 -97 -3 -11 -5 -24 -5 -28
-1 -5 -7 -5 -13 -1 -10 5 -10 4 -1 -6 14 -16 6 -101 -11 -112 -7 -5 -7 -8 -1
-8 7 0 9 -15 7 -35 -3 -23 -8 -32 -16 -28 -7 4 -6 1 1 -9 7 -8 10 -18 7 -21
-4 -3 -8 -30 -11 -59 -7 -100 -9 -110 -24 -119 -11 -7 -11 -9 0 -9 11 0 11 -3
0 -17 -10 -11 -10 -14 -2 -9 10 5 11 1 4 -16 -4 -13 -6 -29 -3 -37 3 -10 0
-11 -9 -5 -12 7 -12 5 0 -9 12 -15 9 -21 -10 -19 -3 1 -6 -5 -6 -13 0 -8 4
-12 9 -9 4 3 8 -4 8 -16 0 -14 -4 -19 -12 -14 -9 5 -9 2 1 -9 10 -13 10 -17 1
-17 -9 0 -9 -4 1 -17 12 -15 12 -16 -5 -10 -14 6 -16 4 -9 -5 10 -13 10 -29
-4 -118 -3 -25 -5 -51 -4 -59 2 -8 -2 -10 -11 -5 -10 6 -10 4 1 -9 7 -9 11
-18 7 -18 -3 -1 -10 -2 -15 -3 -5 0 -13 -5 -18 -9 -4 -5 -1 -7 7 -5 9 2 16 -6
18 -19 2 -14 -2 -23 -9 -23 -10 0 -10 -3 -2 -11 14 -14 5 -41 -11 -32 -6 4 -6
1 2 -9 8 -10 10 -23 4 -39 -5 -13 -7 -29 -5 -36 2 -7 -1 -21 -7 -32 -7 -14 -7
-21 -1 -21 6 0 8 -7 5 -15 -7 -17 -11 -17 243 -17 153 -1 171 -2 166 -17 -4
-13 -2 -12 7 2 6 9 18 17 27 17 13 0 14 -2 2 -18 -13 -16 -13 -16 5 -2 21 17
71 26 62 11 -4 -5 -2 -13 4 -16 6 -4 9 -1 8 6 -2 6 9 13 24 16 23 3 27 1 22
-14 -5 -14 -4 -15 4 -4 12 16 67 28 58 12 -4 -5 -2 -13 4 -16 6 -4 9 -1 8 6
-2 6 10 13 26 16 27 4 28 3 15 -14 -13 -17 -13 -17 5 -3 21 17 71 26 62 11 -4
-5 -2 -13 4 -16 6 -4 9 -1 8 6 -2 6 9 13 24 16 23 3 27 1 22 -14 -5 -14 -4
-15 4 -4 12 16 67 28 58 12 -4 -5 -2 -13 4 -16 6 -4 9 -1 8 6 -2 6 10 13 26
16 27 4 28 3 15 -14 -13 -17 -13 -17 5 -3 21 17 71 26 62 11 -4 -5 -2 -13 4
-16 6 -4 9 -1 8 6 -2 6 9 13 24 16 23 3 27 1 22 -14 -5 -14 -4 -15 4 -4 12 16
67 28 58 12 -4 -5 -2 -13 4 -16 6 -4 9 -1 8 6 -2 6 10 13 26 16 27 4 28 3 15
-14 -13 -17 -13 -17 5 -3 21 17 71 26 62 11 -4 -5 -2 -13 4 -16 6 -4 9 -1 8 6
-2 6 9 13 24 16 23 3 27 1 22 -14 -5 -14 -4 -15 4 -4 12 16 67 28 58 12 -4 -5
-2 -13 4 -16 6 -4 9 -1 8 6 -2 6 10 13 26 16 27 4 28 3 15 -14 -13 -17 -13
-17 5 -3 21 17 71 26 62 11 -4 -5 -2 -13 4 -16 6 -4 9 -1 8 6 -2 6 9 13 24 16
23 3 27 1 22 -14 -5 -14 -4 -15 4 -4 12 16 67 28 58 12 -4 -5 -2 -13 4 -16 6
-4 9 -1 8 6 -2 6 10 13 26 16 27 4 28 3 15 -14 -13 -17 -13 -17 5 -3 16 13 72
15 352 16 300 1 332 -1 327 -15 -3 -12 -2 -12 7 2 6 9 17 17 25 17 9 0 12 -6
9 -17 -5 -15 -4 -15 4 -4 12 16 67 28 58 12 -4 -5 -2 -13 4 -16 6 -4 9 -1 8 6
-2 6 10 13 26 16 27 4 28 3 15 -14 -13 -17 -13 -17 5 -3 24 19 71 26 60 9 -5
-8 -3 -9 7 -3 8 5 25 10 38 12 22 3 23 2 10 -15 -13 -17 -13 -17 5 -3 21 17
71 26 62 11 -4 -5 -2 -13 4 -16 6 -4 9 -1 8 6 -2 6 10 13 26 16 27 4 28 3 15
-14 -13 -17 -13 -17 5 -3 24 19 71 26 60 9 -5 -8 -3 -9 7 -3 8 5 25 10 38 12
22 3 23 2 10 -15 -13 -17 -13 -17 5 -3 21 17 71 26 62 11 -4 -5 -2 -13 4 -16
6 -4 9 -1 8 6 -2 6 10 13 26 16 27 4 28 3 15 -14 -13 -17 -13 -17 5 -3 24 19
71 26 60 9 -5 -8 -3 -9 7 -3 8 5 25 10 38 12 22 3 23 2 10 -15 -13 -17 -13
-17 5 -3 21 17 71 26 62 11 -4 -5 -2 -13 4 -16 6 -4 9 -1 8 6 -2 6 10 13 25
16 21 3 27 0 21 -8 -5 -8 -3 -9 7 -3 23 14 62 17 53 3 -5 -8 -3 -9 7 -3 8 5
25 10 38 12 22 3 23 2 10 -15 -13 -17 -13 -17 5 -3 21 17 71 26 62 11 -4 -5
-2 -13 4 -16 6 -4 9 -1 8 6 -2 6 10 13 25 16 21 3 27 0 21 -8 -5 -8 -3 -9 7
-3 23 14 62 17 53 3 -5 -8 -3 -9 7 -3 8 5 25 10 38 12 22 3 23 2 10 -15 -13
-17 -13 -17 5 -3 16 13 72 15 352 16 300 1 332 -1 327 -15 -3 -12 -2 -12 7 2
6 9 18 17 27 17 13 0 14 -2 2 -17 -13 -17 -13 -17 5 -3 21 17 71 26 62 11 -4
-5 -2 -13 4 -16 6 -4 9 -1 8 7 -2 9 11 14 47 15 28 1 56 2 63 2 9 1 10 15 6
53 -4 29 -8 65 -8 81 -1 15 -3 27 -6 27 -3 0 -5 15 -5 32 0 18 -2 37 -4 43 -8
16 -8 44 0 39 4 -2 11 0 14 6 4 6 1 9 -6 8 -8 -2 -16 13 -20 42 -11 73 -22
172 -23 208 0 17 -4 32 -9 32 -5 0 -3 8 4 17 10 11 10 14 1 9 -8 -5 -12 0 -12
16 0 13 -3 34 -6 48 -6 24 -6 25 10 5 11 -14 15 -15 14 -5 -2 8 -9 20 -17 26
-8 6 -11 18 -8 28 4 9 2 16 -3 16 -6 0 -10 7 -10 16 0 9 5 12 13 8 9 -6 9 -5
0 7 -19 24 -21 85 -1 73 7 -4 8 -3 4 5 -4 6 -11 9 -16 6 -4 -3 -10 5 -13 16
-4 16 -2 19 11 15 15 -6 15 -5 0 7 -14 11 -15 16 -5 27 10 10 9 11 -2 5 -11
-6 -13 -3 -9 13 4 12 3 22 -1 22 -4 0 -8 12 -9 27 -1 22 0 24 8 13 5 -8 10
-10 10 -4 0 5 -5 15 -11 21 -15 15 -18 46 -5 62 8 11 8 13 0 8 -16 -9 -26 46
-11 55 9 6 8 8 -1 8 -7 0 -10 5 -7 10 4 6 11 7 17 4 7 -4 8 -2 4 5 -4 6 -11 9
-16 6 -4 -3 -10 2 -13 9 -3 8 -1 17 6 20 9 3 9 5 0 5 -17 1 -17 38 0 44 7 4 6
6 -4 6 -9 1 -16 7 -16 13 1 7 -3 49 -8 93 -5 44 -9 87 -10 95 0 8 -3 20 -7 25
-4 6 -3 17 3 25 5 8 9 20 9 25 0 6 -5 3 -10 -5 -7 -11 -10 -5 -11 25 0 22 -3
53 -5 70 -5 27 -4 28 13 15 11 -8 9 -5 -4 7 -23 22 -32 50 -13 38 5 -3 10 -2
10 4 0 5 -5 11 -11 13 -6 2 -12 27 -13 56 0 29 -5 52 -11 52 -5 0 -3 5 5 10
12 8 12 10 1 10 -9 0 -12 8 -9 25 3 14 1 25 -6 25 -6 0 -4 5 4 10 8 5 10 10 4
10 -7 0 -11 14 -9 35 1 19 -2 35 -7 35 -4 0 -8 5 -8 11 0 5 5 7 10 4 6 -3 10
-1 10 4 0 6 -5 11 -11 11 -7 0 -10 12 -7 29 2 17 1 28 -3 25 -5 -2 -6 11 -5
31 2 19 -1 35 -6 35 -6 0 -4 8 3 17 10 11 10 14 2 9 -8 -4 -13 -1 -13 9 0 9 4
14 9 10 5 -3 4 7 -4 22 -7 16 -15 53 -18 84 -2 30 -7 61 -11 67 -4 7 -2 12 6
12 10 0 10 2 -1 9 -8 5 -9 11 -3 15 7 4 6 15 -4 34 -8 16 -10 28 -4 30 6 2 10
8 10 13 0 6 -5 7 -11 3 -8 -4 -10 7 -8 39 2 25 1 43 -3 40 -5 -2 -8 5 -8 17 0
12 4 19 9 15 5 -3 13 0 17 6 4 7 3 9 -2 6 -6 -3 -16 -2 -24 4 -13 7 -13 9 0 9
13 0 13 1 0 10 -12 8 -13 11 -1 19 8 5 9 10 3 12 -6 2 -12 22 -13 44 -1 22 -5
44 -8 50 -10 18 -8 45 3 45 7 0 6 3 -1 8 -7 4 -15 32 -18 61 -3 30 -8 57 -10
62 -3 4 -1 10 5 14 5 3 10 12 10 18 0 7 -4 6 -10 -3 -8 -13 -10 -12 -10 3 0
23 4 32 13 29 4 -1 7 2 7 8 0 5 -8 10 -17 10 -15 0 -16 2 -3 10 8 5 10 10 4
10 -14 0 -14 31 -1 48 7 9 6 11 -4 7 -18 -7 -24 42 -9 61 8 9 7 14 -1 20 -8 4
-9 3 -5 -4 4 -7 3 -12 -2 -12 -6 0 -9 20 -7 45 1 25 -3 45 -8 45 -5 0 -5 6 2
13 6 9 7 17 1 23 -15 15 -21 106 -8 121 8 10 8 12 -3 8 -11 -4 -15 4 -17 27
-1 18 -5 47 -8 63 -4 23 -3 26 5 15 6 -8 11 -10 11 -5 -1 6 -7 19 -15 29 -8
10 -11 24 -7 30 10 16 11 37 2 31 -4 -3 -11 19 -15 48 -4 28 -8 60 -10 70 -2
9 1 14 7 11 6 -4 2 5 -7 20 -12 18 -14 26 -5 26 10 0 10 3 1 14 -7 8 -10 26
-7 40 3 14 1 26 -3 26 -4 0 -8 21 -9 48 -5 103 -7 112 -15 112 -5 0 -4 7 3 15
9 11 10 18 1 28 -6 8 -12 34 -14 59 -2 24 -6 49 -9 54 -4 5 -5 24 -4 42 1 17
0 32 -4 32 -3 0 -5 18 -5 40 0 22 -4 40 -8 40 -5 0 -4 6 2 14 9 11 9 16 1 21
-7 4 -10 16 -7 26 3 11 1 19 -4 19 -4 0 -7 20 -5 45 2 24 0 46 -4 47 -4 2 -10
27 -13 56 -3 29 -2 50 3 47 5 -3 12 0 16 6 4 7 3 9 -3 6 -22 -14 -36 34 -19
62 6 9 5 12 -1 8 -6 -4 -13 4 -15 18 -3 15 -1 22 5 18 6 -4 7 -1 2 8 -5 7 -10
20 -11 29 -2 8 -5 31 -8 50 -4 19 -8 55 -11 80 -2 25 -7 64 -10 88 -5 31 -3
42 7 42 10 0 10 2 -2 10 -8 5 -15 19 -16 32 -1 13 -6 53 -11 90 -5 37 -8 74
-7 83 1 8 -2 15 -7 15 -6 0 -7 4 -4 10 10 17 15 51 6 45 -5 -2 -11 8 -13 25
-3 17 0 27 5 23 6 -4 7 -1 1 8 -13 21 -27 109 -28 184 -1 17 -5 33 -11 37 -6
5 -4 8 5 8 10 0 11 3 4 8 -6 4 -14 31 -18 60 -5 42 -4 52 6 47 7 -4 4 1 -6 9
-15 12 -16 16 -5 16 11 0 12 2 0 9 -9 6 -10 11 -2 15 6 4 11 13 11 19 0 7 -4
6 -11 -3 -8 -12 -10 -8 -7 17 3 19 0 29 -5 26 -5 -3 -7 0 -5 8 3 8 2 26 -3 40
-4 17 -3 32 4 39 9 10 9 11 -2 5 -11 -6 -13 -1 -9 24 2 17 1 31 -4 31 -5 0 -6
5 -3 10 4 6 11 7 17 4 7 -4 8 -2 4 5 -4 6 -12 9 -17 6 -5 -4 -9 5 -9 19 0 13
-3 33 -7 43 -6 16 -5 16 11 4 9 -8 14 -21 11 -30 -5 -13 -4 -13 6 -4 10 10 9
17 -8 35 -22 25 -41 94 -22 82 8 -5 8 -1 0 13 -6 11 -7 23 -4 27 3 3 0 6 -8 6
-11 0 -11 2 1 10 9 5 10 10 3 10 -6 0 -11 14 -9 33 1 23 6 31 16 29 8 -2 11 0
7 5 -5 4 -14 8 -20 8 -7 0 -11 14 -11 33 1 17 -3 32 -9 32 -5 0 -3 8 4 17 10
11 10 14 2 9 -16 -9 -16 -1 -2 26 9 16 8 19 -2 13 -9 -6 -11 -2 -7 13 4 12 3
22 -1 22 -4 0 -8 6 -8 13 -1 6 -4 34 -7 60 -5 32 -3 54 5 63 9 12 9 13 -3 9
-9 -4 -15 0 -15 10 0 8 5 15 11 15 8 0 8 2 0 8 -17 11 -22 35 -12 56 7 12 7
16 0 12 -5 -3 -12 8 -14 24 -3 17 0 30 5 30 6 0 6 5 0 13 -6 6 -9 20 -8 29 2
10 -1 20 -6 24 -5 3 -7 10 -3 15 3 5 10 6 16 3 7 -4 8 -2 4 5 -4 6 -12 9 -17
6 -13 -9 -11 9 4 24 8 9 8 12 0 7 -18 -10 -21 37 -3 52 13 10 13 11 -2 6 -11
-4 -18 -1 -19 7 -1 31 -8 97 -13 137 -4 26 -2 41 3 37 5 -3 13 -1 16 5 4 6 3
10 -2 9 -22 -4 -29 3 -31 32 -2 22 1 29 10 24 7 -4 4 1 -6 9 -13 10 -15 16 -7
16 11 0 11 3 1 15 -7 8 -10 15 -7 15 3 0 2 13 -3 29 -6 21 -4 33 9 47 15 17
15 17 -2 4 -17 -13 -18 -11 -14 28 2 25 0 39 -6 35 -6 -3 -8 7 -5 26 3 18 0
31 -6 31 -6 0 -4 5 4 10 8 5 10 10 4 10 -6 0 -14 30 -18 70 -3 39 -7 76 -9 83
-1 7 6 11 16 11 9 -1 17 1 17 5 0 10 264 7 272 -4 5 -7 8 -7 8 0 0 6 18 10 39
8 37 -2 39 0 35 24 -3 14 1 32 8 41 7 9 8 13 3 10 -13 -8 -14 171 -1 191 6 10
6 12 -2 7 -14 -8 -11 91 3 113 5 8 4 12 -1 8 -12 -7 -12 174 0 192 6 10 6 12
-2 7 -14 -8 -11 91 3 113 5 9 4 12 -3 7 -16 -10 -9 69 9 91 13 16 13 17 -3 4
-21 -15 -24 -2 -5 18 10 11 9 12 -1 7 -10 -6 -12 2 -10 29 1 20 6 39 11 42 4
2 3 11 -3 18 -8 9 -6 15 7 21 22 9 63 12 63 4 0 -3 17 -6 38 -6 31 1 37 -2 35
-19 -1 -19 -1 -19 11 -2 7 9 19 17 26 17 7 0 19 -8 26 -17 13 -17 14 -17 7 1
-4 13 -3 17 5 12 14 -8 65 -17 110 -18 17 -1 32 -4 32 -8 0 -4 12 -7 28 -7 27
0 84 -7 152 -18 19 -3 46 -6 60 -6 20 1 22 -1 10 -9 -8 -5 -10 -10 -5 -10 6 0
16 5 22 11 7 7 15 6 25 -5 9 -8 19 -12 22 -9 9 9 36 13 36 5 0 -4 17 -8 38 -8
47 -2 81 -10 97 -24 9 -8 15 -8 20 0 3 5 14 10 23 10 15 0 15 -2 2 -10 -9 -6
-10 -10 -3 -10 6 0 14 4 17 9 3 5 32 3 65 -4 33 -7 62 -10 65 -8 3 3 11 1 18
-3 7 -5 33 -10 58 -12 24 -2 47 -8 51 -14 4 -6 9 -7 13 0 3 5 17 7 31 5 13 -3
23 -9 20 -12 -2 -4 2 -8 10 -8 8 0 11 5 8 10 -3 5 0 7 8 5 8 -3 13 -11 11 -18
-2 -10 0 -11 10 -2 12 10 44 10 88 0 8 -2 21 -10 28 -18 11 -13 12 -13 10 0
-2 9 3 13 12 11 8 -2 23 -3 33 -3 9 0 15 -2 13 -6 -2 -4 14 -6 36 -4 27 3 38
1 34 -6 -3 -6 -1 -14 5 -18 8 -5 9 -3 4 5 -5 9 2 12 26 10 19 -2 40 -7 47 -12
8 -6 12 -5 12 2 0 7 5 9 13 4 13 -8 48 -14 87 -13 20 0 22 -2 10 -10 -8 -5
-10 -10 -5 -10 6 0 16 5 23 12 8 8 12 8 12 1 0 -6 12 -11 28 -10 68 1 75 -2
61 -20 -12 -17 -12 -17 6 -1 17 16 19 16 32 0 12 -16 13 -16 6 2 -5 16 -3 17
12 9 10 -6 26 -8 36 -6 11 3 19 0 19 -6 0 -5 7 -8 15 -5 9 4 15 0 15 -7 0 -11
3 -11 11 1 7 10 12 11 15 3 3 -6 16 -9 31 -7 15 3 30 0 34 -8 7 -10 9 -11 9 0
0 8 6 10 18 5 9 -5 28 -8 42 -8 14 1 31 -6 38 -15 8 -8 11 -10 8 -3 -4 8 2 11
21 8 16 -2 41 -4 56 -4 16 -1 26 -5 23 -10 -3 -4 11 -6 30 -4 21 2 33 0 30 -6
-4 -5 -2 -13 4 -16 6 -4 10 -3 9 2 -4 22 3 25 17 7 8 -10 13 -13 9 -6 -4 8 2
12 19 12 14 0 26 -4 26 -9 0 -5 9 -7 21 -4 12 4 25 0 30 -8 6 -10 9 -10 9 -1
0 6 5 12 11 12 5 0 8 -4 5 -9 -3 -4 5 -6 18 -4 13 3 27 0 31 -7 5 -8 10 -8 21
1 11 9 14 9 14 0 0 -7 8 -11 18 -9 10 2 16 -2 14 -10 -1 -8 2 -11 8 -7 6 3 8
10 6 14 -3 4 1 8 9 8 8 0 15 -7 15 -16 0 -13 2 -13 9 -3 6 10 19 12 47 7 21
-4 53 -9 69 -11 17 -3 41 -7 55 -9 14 -2 33 -4 43 -4 11 -1 15 -6 11 -13 -5
-7 -3 -8 7 -2 18 11 39 14 39 6 0 -4 17 -8 38 -9 20 -1 57 -5 82 -8 25 -4 53
-7 63 -6 9 0 15 -3 13 -8 -3 -4 11 -5 31 -3 21 3 33 1 30 -5 -3 -5 7 -7 25 -5
24 4 29 2 23 -9 -7 -11 -6 -12 6 -3 14 10 20 10 89 -1 19 -3 43 -7 53 -8 9 -1
17 -4 17 -7 0 -3 19 -5 43 -6 39 -1 103 -8 137 -16 8 -1 21 -10 28 -18 8 -8
11 -10 8 -3 -4 6 -2 14 4 18 5 3 10 2 10 -3 0 -6 10 -8 22 -4 12 3 19 1 15 -5
-3 -5 0 -10 8 -10 8 0 12 3 10 7 -2 3 12 4 31 2 18 -2 32 -8 29 -12 -3 -5 0
-12 6 -16 8 -4 9 -3 5 5 -7 11 57 9 129 -4 11 -2 26 -4 33 -4 7 -1 10 -5 7
-11 -3 -5 -2 -10 4 -10 5 0 12 6 15 13 4 7 8 8 11 2 3 -6 21 -10 40 -9 26 2
35 -2 36 -15 0 -12 2 -12 9 4 5 11 9 14 9 7 1 -7 6 -10 11 -7 6 4 18 1 27 -7
11 -8 14 -9 10 -1 -5 8 -1 10 15 7 28 -6 47 -9 163 -25 108 -15 109 -15 115
-18 3 -2 28 -5 55 -7 28 -2 61 -7 75 -11 14 -3 33 -5 44 -4 10 2 15 -2 12 -7
-4 -6 -2 -14 4 -17 6 -4 10 -3 9 2 -4 22 3 25 17 7 8 -10 13 -13 9 -6 -4 7 0
12 9 12 8 0 17 -6 19 -12 3 -8 6 -9 6 -2 1 14 53 6 63 -10 5 -7 8 -6 8 4 0 13
1 13 10 0 7 -11 10 -11 10 -2 0 7 4 11 8 8 12 -7 60 -16 116 -22 30 -3 54 -11
63 -22 12 -16 13 -16 7 1 -6 16 6 24 19 11 4 -4 25 -8 48 -9 23 -2 45 -8 49
-15 6 -9 9 -9 13 1 4 9 8 10 14 4 4 -5 30 -11 57 -12 28 -1 52 -7 57 -15 5 -7
9 -8 9 -2 0 6 7 11 15 11 9 0 14 -6 11 -14 -4 -9 -2 -11 7 -6 19 12 30 11 52
-6 19 -15 19 -15 5 3 -14 18 -13 19 5 12 11 -5 35 -9 52 -9 23 0 35 -6 39 -19
3 -10 10 -15 16 -12 6 4 5 10 -3 15 -11 6 -9 9 7 9 11 0 23 -3 27 -6 3 -4 32
-8 64 -10 31 -3 60 -8 63 -12 3 -4 25 -8 50 -9 25 -1 61 -4 80 -7 19 -2 43 -4
53 -5 12 -1 16 -6 11 -13 -5 -10 -4 -10 5 -2 6 6 25 8 42 6 23 -3 29 -9 25
-21 -5 -13 -3 -12 8 2 10 14 15 15 19 5 4 -11 6 -11 6 0 1 7 5 11 9 8 12 -7
60 -16 117 -22 27 -2 52 -9 56 -15 4 -8 9 -7 13 2 4 10 8 11 11 3 3 -7 15 -9
27 -6 14 3 19 1 14 -6 -5 -9 0 -9 18 -2 14 5 26 6 26 2 0 -7 13 -8 98 -14 17
-1 32 -5 32 -8 0 -4 14 -5 30 -2 17 2 36 0 43 -5 6 -5 27 -9 45 -8 17 0 32 -2
32 -6 0 -3 11 -4 25 -1 14 2 25 0 25 -5 0 -5 16 -9 36 -8 28 2 34 -1 29 -14
-3 -11 0 -10 10 3 8 11 15 15 15 10 0 -6 13 -9 30 -8 16 1 28 -1 26 -5 -3 -4
15 -7 38 -6 41 0 43 2 35 22 -5 14 -4 23 4 27 9 3 9 5 -1 5 -10 1 -10 6 -2 21
6 11 7 20 3 20 -4 0 -8 14 -8 30 0 17 5 30 10 30 7 0 7 3 0 8 -15 10 -12 76 3
85 10 6 10 12 2 22 -17 21 -18 213 -1 220 10 4 11 8 1 20 -18 22 -20 373 -1
380 10 4 11 8 2 19 -18 22 -20 214 -2 221 10 4 11 8 1 20 -8 9 -12 61 -11 157
0 189 -1 180 14 173 6 -4 3 1 -7 9 -20 16 -20 16 0 17 15 0 16 2 4 7 -18 8
-25 32 -9 32 5 0 7 5 3 11 -13 21 -10 89 5 94 11 4 11 8 1 20 -18 21 -19 93
-1 100 10 4 11 8 1 20 -18 22 -20 373 -1 380 10 4 11 8 2 19 -18 22 -20 214
-2 221 10 4 11 8 1 20 -8 9 -12 61 -11 157 0 189 -1 180 14 173 6 -4 3 1 -7 9
-20 16 -20 16 0 17 15 0 16 2 4 7 -18 8 -25 32 -9 32 5 0 7 5 3 11 -13 22 -10
89 5 94 12 5 11 8 -1 23 -16 19 -13 55 5 46 7 -3 3 2 -7 10 -15 12 -16 16 -5
16 8 0 10 3 4 8 -6 4 -10 17 -9 30 1 25 -7 26 -113 6z"/>
<path d="M2415 10840 c3 -5 8 -10 11 -10 2 0 4 5 4 10 0 6 -5 10 -11 10 -5 0
-7 -4 -4 -10z"/>
<path d="M10035 10791 c-3 -5 -2 -12 3 -15 5 -3 9 1 9 9 0 17 -3 19 -12 6z"/>
<path d="M9950 10780 c0 -5 5 -10 11 -10 5 0 7 5 4 10 -3 6 -8 10 -11 10 -2 0
-4 -4 -4 -10z"/>
<path d="M10146 10782 c-3 -5 1 -9 9 -9 8 0 15 4 15 9 0 4 -4 8 -9 8 -6 0 -12
-4 -15 -8z"/>
<path d="M9846 10742 c-3 -5 1 -9 9 -9 8 0 12 4 9 9 -3 4 -7 8 -9 8 -2 0 -6
-4 -9 -8z"/>
<path d="M2147 10659 c7 -7 15 -10 18 -7 3 3 -2 9 -12 12 -14 6 -15 5 -6 -5z"/>
<path d="M2750 10640 c0 -5 5 -10 11 -10 5 0 7 5 4 10 -3 6 -8 10 -11 10 -2 0
-4 -4 -4 -10z"/>
<path d="M2814 10616 c1 -8 5 -18 8 -22 4 -3 5 1 4 10 -1 8 -5 18 -8 22 -4 3
-5 -1 -4 -10z"/>
<path d="M9035 10620 c3 -5 8 -10 11 -10 2 0 4 5 4 10 0 6 -5 10 -11 10 -5 0
-7 -4 -4 -10z"/>
<path d="M8710 10596 c0 -2 8 -10 18 -17 15 -13 16 -12 3 4 -13 16 -21 21 -21
13z"/>
<path d="M8270 10540 c0 -5 5 -10 11 -10 5 0 7 5 4 10 -3 6 -8 10 -11 10 -2 0
-4 -4 -4 -10z"/>
<path d="M8075 10520 c3 -5 8 -10 11 -10 2 0 4 5 4 10 0 6 -5 10 -11 10 -5 0
-7 -4 -4 -10z"/>
<path d="M2950 10499 c0 -5 5 -7 10 -4 6 3 10 8 10 11 0 2 -4 4 -10 4 -5 0
-10 -5 -10 -11z"/>
<path d="M8166 10502 c-3 -5 1 -9 9 -9 8 0 12 4 9 9 -3 4 -7 8 -9 8 -2 0 -6
-4 -9 -8z"/>
<path d="M7606 10422 c-3 -5 1 -9 9 -9 8 0 12 4 9 9 -3 4 -7 8 -9 8 -2 0 -6
-4 -9 -8z"/>
<path d="M3064 10402 c4 -3 14 -7 22 -8 9 -1 13 0 10 4 -4 3 -14 7 -22 8 -9 1
-13 0 -10 -4z"/>
<path d="M7246 10378 c3 -5 10 -6 15 -3 13 9 11 12 -6 12 -8 0 -12 -4 -9 -9z"/>
<path d="M1710 10339 c0 -5 5 -7 10 -4 6 3 10 8 10 11 0 2 -4 4 -10 4 -5 0
-10 -5 -10 -11z"/>
<path d="M3147 10339 c7 -7 15 -10 18 -7 3 3 -2 9 -12 12 -14 6 -15 5 -6 -5z"/>
<path d="M3186 10338 c3 -5 10 -6 15 -3 13 9 11 12 -6 12 -8 0 -12 -4 -9 -9z"/>
<path d="M10870 10306 c0 -2 7 -7 16 -10 8 -3 12 -2 9 4 -6 10 -25 14 -25 6z"/>
<path d="M6346 10242 c-3 -5 1 -9 9 -9 8 0 12 4 9 9 -3 4 -7 8 -9 8 -2 0 -6
-4 -9 -8z"/>
<path d="M3387 10159 c7 -7 15 -10 18 -7 3 3 -2 9 -12 12 -14 6 -15 5 -6 -5z"/>
<path d="M1433 10105 c0 -8 4 -12 9 -9 5 3 6 10 3 15 -9 13 -12 11 -12 -6z"/>
<path d="M4225 9960 c-3 -6 1 -7 9 -4 18 7 21 14 7 14 -6 0 -13 -4 -16 -10z"/>
<path d="M4179 9933 c-13 -16 -12 -17 4 -4 9 7 17 15 17 17 0 8 -8 3 -21 -13z"/>
<path d="M3995 9911 c-3 -5 -2 -12 3 -15 5 -3 9 1 9 9 0 17 -3 19 -12 6z"/>
<path d="M3640 9860 c-12 -7 -10 -9 7 -7 12 0 19 5 17 9 -6 10 -6 10 -24 -2z"/>
<path d="M10870 9826 c0 -2 7 -7 16 -10 8 -3 12 -2 9 4 -6 10 -25 14 -25 6z"/>
<path d="M1510 9701 c0 -6 4 -13 10 -16 6 -3 7 1 4 9 -7 18 -14 21 -14 7z"/>
<path d="M1535 9700 c3 -5 8 -10 11 -10 2 0 4 5 4 10 0 6 -5 10 -11 10 -5 0
-7 -4 -4 -10z"/>
<path d="M1556 9675 c-9 -26 -7 -32 5 -12 6 10 9 21 6 23 -2 3 -7 -2 -11 -11z"/>
<path d="M1550 9286 c0 -2 7 -7 16 -10 8 -3 12 -2 9 4 -6 10 -25 14 -25 6z"/>
<path d="M1546 9058 c3 -5 10 -6 15 -3 13 9 11 12 -6 12 -8 0 -12 -4 -9 -9z"/>
<path d="M10870 9026 c0 -2 7 -7 16 -10 8 -3 12 -2 9 4 -6 10 -25 14 -25 6z"/>
<path d="M1555 8930 c-3 -5 -1 -10 4 -10 6 0 11 5 11 10 0 6 -2 10 -4 10 -3 0
-8 -4 -11 -10z"/>
<path d="M975 8921 c-3 -5 -2 -12 3 -15 5 -3 9 1 9 9 0 17 -3 19 -12 6z"/>
<path d="M1135 8921 c-3 -5 -2 -12 3 -15 5 -3 9 1 9 9 0 17 -3 19 -12 6z"/>
<path d="M4155 8660 c-3 -5 -1 -10 4 -10 6 0 11 5 11 10 0 6 -2 10 -4 10 -3 0
-8 -4 -11 -10z"/>
<path d="M4555 8640 c3 -5 8 -10 11 -10 2 0 4 5 4 10 0 6 -5 10 -11 10 -5 0
-7 -4 -4 -10z"/>
<path d="M5073 8573 c0 -9 4 -10 14 -2 7 6 13 12 13 14 0 1 -6 2 -13 2 -8 0
-14 -6 -14 -14z"/>
<path d="M10870 8546 c0 -2 7 -7 16 -10 8 -3 12 -2 9 4 -6 10 -25 14 -25 6z"/>
<path d="M5453 8525 c0 -8 4 -12 9 -9 5 3 6 10 3 15 -9 13 -12 11 -12 -6z"/>
<path d="M5695 8480 c-3 -5 -1 -10 4 -10 6 0 11 5 11 10 0 6 -2 10 -4 10 -3 0
-8 -4 -11 -10z"/>
<path d="M6359 8373 c-13 -16 -12 -17 4 -4 9 7 17 15 17 17 0 8 -8 3 -21 -13z"/>
<path d="M4130 8295 c0 -8 2 -15 4 -15 2 0 6 7 10 15 3 8 1 15 -4 15 -6 0 -10
-7 -10 -15z"/>
<path d="M7516 8227 c3 -10 9 -15 12 -12 3 3 0 11 -7 18 -10 9 -11 8 -5 -6z"/>
<path d="M7693 8205 c0 -8 4 -12 9 -9 5 3 6 10 3 15 -9 13 -12 11 -12 -6z"/>
<path d="M7935 8160 c-3 -5 -1 -10 4 -10 6 0 11 5 11 10 0 6 -2 10 -4 10 -3 0
-8 -4 -11 -10z"/>
<path d="M716 8118 c3 -5 10 -6 15 -3 13 9 11 12 -6 12 -8 0 -12 -4 -9 -9z"/>
<path d="M8439 8093 c-13 -16 -12 -17 4 -4 9 7 17 15 17 17 0 8 -8 3 -21 -13z"/>
<path d="M4132 7984 c-1 -13 0 -24 2 -24 7 0 14 40 7 44 -4 3 -8 -6 -9 -20z"/>
<path d="M866 7762 c-3 -5 1 -9 9 -9 8 0 12 4 9 9 -3 4 -7 8 -9 8 -2 0 -6 -4
-9 -8z"/>
<path d="M3760 7720 c-12 -7 -10 -9 7 -7 12 0 19 5 17 9 -6 10 -6 10 -24 -2z"/>
<path d="M3790 7423 c0 -6 8 -17 18 -24 16 -13 16 -13 2 6 -8 11 -16 22 -17
24 -2 2 -3 0 -3 -6z"/>
<path d="M1116 7337 c3 -10 9 -15 12 -12 3 3 0 11 -7 18 -10 9 -11 8 -5 -6z"/>
<path d="M3870 6806 c0 -2 7 -7 16 -10 8 -3 12 -2 9 4 -6 10 -25 14 -25 6z"/>
<path d="M3930 6379 c0 -5 5 -7 10 -4 6 3 10 8 10 11 0 2 -4 4 -10 4 -5 0 -10
-5 -10 -11z"/>
<path d="M956 6161 c-3 -5 2 -15 12 -22 15 -12 16 -12 5 2 -7 9 -10 19 -6 22
3 4 4 7 0 7 -3 0 -8 -4 -11 -9z"/>
<path d="M4019 5693 c-13 -16 -12 -17 4 -4 9 7 17 15 17 17 0 8 -8 3 -21 -13z"/>
<path d="M4066 5298 c3 -5 10 -6 15 -3 13 9 11 12 -6 12 -8 0 -12 -4 -9 -9z"/>
<path d="M4070 5261 c0 -6 4 -13 10 -16 6 -3 7 1 4 9 -7 18 -14 21 -14 7z"/>
<path d="M4116 4947 c3 -10 9 -15 12 -12 3 3 0 11 -7 18 -10 9 -11 8 -5 -6z"/>
<path d="M795 4861 c-3 -5 -2 -12 3 -15 5 -3 9 1 9 9 0 17 -3 19 -12 6z"/>
<path d="M759 4633 c-13 -16 -12 -17 4 -4 9 7 17 15 17 17 0 8 -8 3 -21 -13z"/>
<path d="M4235 4049 c-4 -6 -5 -12 -2 -15 2 -3 7 2 10 11 7 17 1 20 -8 4z"/>
<path d="M4230 3970 c0 -5 5 -10 11 -10 5 0 7 5 4 10 -3 6 -8 10 -11 10 -2 0
-4 -4 -4 -10z"/>
<path d="M496 2607 c3 -10 9 -15 12 -12 3 3 0 11 -7 18 -10 9 -11 8 -5 -6z"/>
<path d="M4469 2223 c-13 -16 -12 -17 4 -4 16 13 21 21 13 21 -2 0 -10 -8 -17
-17z"/>
<path d="M4555 1709 c-4 -6 -5 -12 -2 -15 2 -3 7 2 10 11 7 17 1 20 -8 4z"/>
<path d="M375 1629 c-4 -6 -5 -12 -2 -15 2 -3 7 2 10 11 7 17 1 20 -8 4z"/>
<path d="M4554 1500 c0 -13 4 -16 10 -10 7 7 7 13 0 20 -6 6 -10 3 -10 -10z"/>
<path d="M315 1269 c-4 -6 -5 -12 -2 -15 2 -3 7 2 10 11 7 17 1 20 -8 4z"/>
<path d="M4646 818 c3 -5 10 -6 15 -3 13 9 11 12 -6 12 -8 0 -12 -4 -9 -9z"/>
<path d="M4675 641 c-3 -5 -2 -12 3 -15 5 -3 9 1 9 9 0 17 -3 19 -12 6z"/>
<path d="M4690 400 c0 -5 5 -10 11 -10 5 0 7 5 4 10 -3 6 -8 10 -11 10 -2 0
-4 -4 -4 -10z"/>
<path d="M4626 178 c3 -5 10 -6 15 -3 13 9 11 12 -6 12 -8 0 -12 -4 -9 -9z"/>
</g>
</svg>
